<svg width="58" height="58" viewBox="0 0 58 58" fill="none" xmlns="http://www.w3.org/2000/svg">
<path d="M50.75 45.9167C50.75 45.9167 43.5 39.875 43.5 22.9584C43.5 14.9503 37.0081 8.45837 29 8.45837C25.9308 8.45837 23.0842 9.41197 20.7407 11.039M36.25 45.9167H7.25C7.25 45.9167 13.9794 40.3088 14.4716 24.7709" stroke="#FF9F1C" stroke-width="4.83333" stroke-linecap="round" stroke-linejoin="round"/>
<path d="M21.75 45.9166H36.25C36.25 49.9207 33.0041 53.1666 29 53.1666C24.9959 53.1666 21.75 49.9207 21.75 45.9166Z" stroke="#FF9F1C" stroke-width="4.83333"/>
<path fill-rule="evenodd" clip-rule="evenodd" d="M29 2.41663C26.3306 2.41663 24.1666 4.58058 24.1666 7.24996H33.8333C33.8333 4.58058 31.6693 2.41663 29 2.41663Z" fill="#FF9F1C"/>
<path d="M8.45837 7.85413L49.5417 53.7708" stroke="#FF9F1C" stroke-width="4.83333" stroke-linecap="round" stroke-linejoin="round"/>
</svg>
