<svg width="48" height="57" viewBox="0 0 48 57" fill="none" xmlns="http://www.w3.org/2000/svg">
<mask id="path-1-inside-1_7_141" fill="white">
<path d="M24.1162 0.00488281C31.8163 0.199769 37.999 6.50291 37.999 14.25V23.75H40.374C44.309 23.75 47.499 26.94 47.499 30.875V49.874C47.499 53.809 44.309 56.999 40.374 56.999H7.125C3.19003 56.999 0 53.809 0 49.874V30.875C0 26.94 3.19003 23.75 7.125 23.75H9.49902V14.25C9.49902 6.38014 15.8792 0.000117007 23.749 0L24.1162 0.00488281ZM23.749 4.75C18.5025 4.75012 14.249 9.00344 14.249 14.25V23.75H33.249V14.25C33.249 9.00345 28.9955 4.75012 23.749 4.75Z"/>
</mask>
<path d="M24.1162 0.00488281L24.2364 -4.74352L24.2079 -4.74424L24.1794 -4.74462L24.1162 0.00488281ZM37.999 23.75H33.2491V28.4999H37.999V23.75ZM9.49902 23.75V28.4999H14.2489V23.75H9.49902ZM23.749 0L23.8122 -4.7495L23.7806 -4.74992L23.749 -4.74992L23.749 0ZM23.749 4.75L23.7491 7.62903e-05L23.7489 7.62951e-05L23.749 4.75ZM14.249 23.75H9.4991V28.4999H14.249V23.75ZM33.249 23.75V28.4999H37.9989V23.75H33.249ZM24.1162 0.00488281L23.996 4.75329C29.1273 4.88315 33.2491 9.08617 33.2491 14.25H37.999H42.7489C42.7489 3.91964 34.5054 -4.48362 24.2364 -4.74352L24.1162 0.00488281ZM37.999 14.25H33.2491V23.75H37.999H42.7489V14.25H37.999ZM37.999 23.75V28.4999H40.374V23.75V19.0001H37.999V23.75ZM40.374 23.75V28.4999C41.6857 28.4999 42.7491 29.5633 42.7491 30.875H47.499H52.2489C52.2489 24.3167 46.9323 19.0001 40.374 19.0001V23.75ZM47.499 30.875H42.7491V49.874H47.499H52.2489V30.875H47.499ZM47.499 49.874H42.7491C42.7491 51.1857 41.6857 52.2491 40.374 52.2491V56.999V61.7489C46.9323 61.7489 52.2489 56.4323 52.2489 49.874H47.499ZM40.374 56.999V52.2491H7.125V56.999V61.7489H40.374V56.999ZM7.125 56.999V52.2491C5.81334 52.2491 4.74992 51.1857 4.74992 49.874H0H-4.74992C-4.74992 56.4323 0.566724 61.7489 7.125 61.7489V56.999ZM0 49.874H4.74992V30.875H0H-4.74992V49.874H0ZM0 30.875H4.74992C4.74992 29.5633 5.81334 28.4999 7.125 28.4999V23.75V19.0001C0.566724 19.0001 -4.74992 24.3167 -4.74992 30.875H0ZM7.125 23.75V28.4999H9.49902V23.75V19.0001H7.125V23.75ZM9.49902 23.75H14.2489V14.25H9.49902H4.7491V23.75H9.49902ZM9.49902 14.25H14.2489C14.2489 9.00352 18.5024 4.75 23.7491 4.74992L23.749 0L23.749 -4.74992C13.2559 -4.74977 4.7491 3.75676 4.7491 14.25H9.49902ZM23.749 0L23.6859 4.7495L24.0531 4.75439L24.1162 0.00488281L24.1794 -4.74462L23.8122 -4.7495L23.749 0ZM23.749 4.75L23.7489 7.62951e-05C15.8793 0.00025179 9.4991 6.38002 9.4991 14.25H14.249H18.9989C18.9989 11.6269 21.1257 9.49998 23.7491 9.49992L23.749 4.75ZM14.249 14.25H9.4991V23.75H14.249H18.9989V14.25H14.249ZM14.249 23.75V28.4999H33.249V23.75V19.0001H14.249V23.75ZM33.249 23.75H37.9989V14.25H33.249H28.4991V23.75H33.249ZM33.249 14.25H37.9989C37.9989 6.38003 31.6188 0.000260676 23.7491 7.62952e-05L23.749 4.75L23.7489 9.49992C26.3723 9.49998 28.4991 11.6269 28.4991 14.25H33.249Z" fill="#FF9F1C" mask="url(#path-1-inside-1_7_141)"/>
</svg>
