<svg width="25" height="25" viewBox="0 0 25 25" fill="none" xmlns="http://www.w3.org/2000/svg">
<path fill-rule="evenodd" clip-rule="evenodd" d="M3.63281 3.60625C8.44114 -1.20208 16.237 -1.20208 21.0453 3.60625C25.8536 8.41458 25.8536 16.2104 21.0453 21.0188C19.6324 22.4317 17.4615 23.7236 15.0426 24.3022C12.6117 24.8837 9.86643 24.7571 7.38887 23.226C7.26031 23.1466 7.17801 23.0958 7.11584 23.0596C7.07364 23.035 7.05488 23.0256 7.05104 23.0236C7.00929 23.0074 6.994 23.0055 6.994 23.0055C6.994 23.0055 6.9764 23.0027 6.92868 23.0064C6.93702 23.0057 6.92854 23.0054 6.87785 23.0168C6.824 23.029 6.75314 23.0473 6.63357 23.0783L6.60323 23.0861C5.90869 23.2662 5.34525 23.4122 4.89167 23.4977C4.43548 23.5838 3.99277 23.6297 3.56689 23.543C2.32847 23.291 1.36061 22.3231 1.10858 21.0847C1.0219 20.6588 1.06779 20.2161 1.15381 19.7599C1.23935 19.3063 1.38539 18.7429 1.56541 18.0483L1.57328 18.018C1.60428 17.8984 1.62253 17.8276 1.6347 17.7738C1.64614 17.7232 1.64576 17.7147 1.64513 17.723C1.64875 17.6758 1.64629 17.66 1.64591 17.6576C1.64556 17.6552 1.64333 17.6403 1.62761 17.6001C1.62566 17.5963 1.6163 17.5777 1.59188 17.536C1.55577 17.4743 1.50517 17.3928 1.4258 17.2651C-0.107334 14.798 -0.266907 12.0828 0.303023 9.65773C0.869987 7.24532 2.16714 5.07192 3.63281 3.60625ZM19.8305 4.82107C15.6931 0.683673 8.98504 0.683673 4.84764 4.82107C3.60067 6.06804 2.46698 7.95945 1.97548 10.0508C1.48694 12.1295 1.64127 14.3569 2.88501 16.3582C2.89628 16.3764 2.90759 16.3945 2.91889 16.4127C3.03733 16.6027 3.15458 16.7908 3.22174 16.9594C3.34191 17.2612 3.38296 17.5306 3.35811 17.8544C3.34427 18.0349 3.29543 18.2223 3.24862 18.4019C3.24451 18.4177 3.24041 18.4334 3.23635 18.449C3.04659 19.1812 2.9156 19.6884 2.84208 20.0783C2.76781 20.4721 2.77315 20.649 2.79209 20.7421C2.90665 21.305 3.34658 21.7449 3.9095 21.8595C4.00255 21.8784 4.17945 21.8838 4.57331 21.8095C4.96317 21.736 5.4704 21.605 6.20252 21.4152C6.2182 21.4111 6.23395 21.407 6.24976 21.4029C6.42924 21.3561 6.61637 21.3074 6.79632 21.2935C7.11971 21.2685 7.38712 21.3089 7.68869 21.4283C7.85694 21.4949 8.04582 21.612 8.23709 21.7305C8.25539 21.7419 8.2737 21.7532 8.29203 21.7646C10.2926 23.0008 12.5451 23.1332 14.6429 22.6313C16.7527 22.1266 18.6416 20.9928 19.8305 19.8039C23.9679 15.6665 23.9679 8.95848 19.8305 4.82107Z" fill="#E0E0E0" fill-opacity="0.63"/>
<path d="M8.93674 12.1496C8.93674 12.7822 8.42395 13.295 7.7914 13.295C7.15884 13.295 6.64605 12.7822 6.64605 12.1496C6.64605 11.5171 7.15884 11.0043 7.7914 11.0043C8.42395 11.0043 8.93674 11.5171 8.93674 12.1496Z" fill="#E0E0E0" fill-opacity="0.63"/>
<path d="M13.5181 12.1496C13.5181 12.7822 13.0054 13.295 12.3728 13.295C11.7402 13.295 11.2274 12.7822 11.2274 12.1496C11.2274 11.5171 11.7402 11.0043 12.3728 11.0043C13.0054 11.0043 13.5181 11.5171 13.5181 12.1496Z" fill="#E0E0E0" fill-opacity="0.63"/>
<path d="M18.0995 12.1496C18.0995 12.7822 17.5867 13.295 16.9542 13.295C16.3216 13.295 15.8088 12.7822 15.8088 12.1496C15.8088 11.5171 16.3216 11.0043 16.9542 11.0043C17.5867 11.0043 18.0995 11.5171 18.0995 12.1496Z" fill="#E0E0E0" fill-opacity="0.63"/>
</svg>
