<svg width="38" height="38" viewBox="0 0 38 38" fill="none" xmlns="http://www.w3.org/2000/svg">
<path d="M16.4486 2.11168C15.7744 2.04961 14.661 2.0417 14.5556 2.09629C14.5344 2.10782 14.5096 2.10601 14.5029 2.09208C14.4926 2.08057 14.4672 2.08179 14.4423 2.09575C14.4175 2.1097 14.3878 2.11638 14.3727 2.11336C14.3236 2.10672 14.1425 2.11469 14.0637 2.13048C14.0177 2.1402 13.9723 2.14689 13.9596 2.14751C13.9432 2.15055 13.9268 2.15358 13.9172 2.1548C13.9075 2.15602 13.8875 2.16148 13.8687 2.16089C13.8529 2.16089 13.8299 2.16576 13.8202 2.16697C13.8105 2.16819 13.7906 2.17365 13.7718 2.17306C13.756 2.17307 13.7366 2.1755 13.7324 2.18096C13.7257 2.18278 13.7003 2.184 13.6749 2.18523C13.6494 2.18645 13.5846 2.19558 13.5289 2.20652C13.4762 2.21806 13.4241 2.22657 13.4144 2.22779C13.335 2.23086 13.2078 2.25274 13.0558 2.28857C12.9565 2.31287 12.8147 2.34445 12.742 2.36146C12.4028 2.43557 11.865 2.58978 11.5894 2.69235C11.5246 2.71723 11.4404 2.74454 11.404 2.75305C11.338 2.76823 10.7323 3.00974 10.6584 3.04857C10.5876 3.088 10.3653 3.19175 10.286 3.22633C10.2139 3.25606 10.0425 3.3416 9.94679 3.39498C9.92559 3.40651 9.84019 3.45564 9.75601 3.49872C9.32175 3.73348 8.51868 4.25387 8.18439 4.52434C8.08265 4.60802 7.96698 4.69838 7.93003 4.72567C7.71685 4.8785 7.05678 5.50306 6.74008 5.84321C5.9898 6.65145 5.19724 7.81363 4.81164 8.65682C4.80075 8.67986 4.76443 8.75139 4.73295 8.81443C4.60401 9.08176 4.36916 9.65883 4.21544 10.0977C4.06959 10.5129 4.02482 10.6899 3.84339 11.599C3.62204 12.7082 3.58521 13.0664 3.58853 13.9809C3.59535 16.2984 4.26423 18.5022 5.55333 20.4705C6.21212 21.478 6.95691 22.4018 7.73678 23.1814C7.92341 23.3668 8.23002 23.6611 8.2791 23.6993C8.30092 23.7163 8.36817 23.7738 8.42695 23.8265C8.52511 23.9186 9.36007 24.5642 9.49033 24.6532C9.52123 24.672 9.62121 24.7392 9.7127 24.8015C10.4701 25.3151 11.5788 25.8199 12.4554 26.0516L12.725 26.1212L13.1053 25.8725C13.3155 25.7348 13.7776 25.4394 14.1337 25.2174C14.9592 24.6952 15.4921 24.3604 15.7023 24.2227C15.7962 24.1627 16.1099 23.9637 16.4048 23.7799C16.6967 23.5956 17.0135 23.3972 17.1074 23.3372C17.2012 23.2771 17.4059 23.151 17.561 23.0527C17.716 22.9545 18.1521 22.6791 18.527 22.4419C18.9025 22.2018 19.367 21.91 19.5547 21.7899C19.8927 21.5801 20.8514 20.9741 22.2068 20.1165C22.5817 19.8793 22.9281 19.6586 22.982 19.6252C23.0359 19.5918 23.3678 19.3808 23.7209 19.1582C24.0746 18.9325 24.4059 18.7245 24.4598 18.6911C24.607 18.6008 25.7098 17.9039 25.9042 17.7819C26.2761 17.5442 27.23 16.9467 27.4456 16.8133L27.6757 16.6702L27.7531 16.172C27.9242 15.1095 27.8965 13.7805 27.6805 12.7952C27.6666 12.7231 27.6344 12.5685 27.6107 12.4504C27.4997 11.8862 27.2511 11.1118 26.9516 10.3871C26.8255 10.0878 26.8085 10.0466 26.6461 9.70854C26.5624 9.52799 26.4709 9.33956 26.4466 9.28745C26.4024 9.19354 26.24 8.88697 26.1945 8.81487C26.18 8.79306 26.1484 8.73005 26.1187 8.67371C25.8308 8.0963 24.7993 6.57326 24.4491 6.21345C24.4175 6.18195 24.3903 6.145 24.383 6.13409C24.3424 6.05351 23.5534 5.24062 23.4292 5.15281C23.3989 5.131 23.3317 5.07347 23.2808 5.02864C22.8869 4.66644 22.2852 4.20919 21.8732 3.95366C21.5672 3.76655 21.5642 3.76594 21.5442 3.75565C21.5303 3.74657 21.5164 3.73748 21.5079 3.73264C21.4994 3.7278 21.4855 3.71871 21.4745 3.71023C21.46 3.70418 21.4152 3.67633 21.3709 3.64544C21.3261 3.61759 21.2698 3.58428 21.2431 3.57581C21.2164 3.56734 21.1855 3.54857 21.1698 3.53282C21.1565 3.52071 21.0965 3.48983 21.042 3.4632C20.9178 3.4069 20.9202 3.41053 20.8705 3.37541C20.6512 3.22765 19.6249 2.81486 18.9754 2.61278C18.4471 2.45063 16.9841 2.15867 16.4486 2.11168ZM15.0931 13.8598C15.6033 14.1286 15.965 14.4466 16.2571 14.8925C16.8184 15.7419 16.9356 16.7327 16.5888 17.6655C16.2717 18.513 15.5789 19.1909 14.7358 19.4858C14.4644 19.5829 13.9895 19.6583 13.7109 19.65C13.0772 19.637 12.4054 19.4052 11.9479 19.0461C11.0221 18.3193 10.5789 17.1311 10.8141 15.9995C11.0754 14.7376 12.14 13.7431 13.4072 13.5801C13.8009 13.5326 13.9718 13.5446 14.4576 13.651C14.7829 13.7254 14.9277 13.7732 15.0931 13.8598Z" fill="#00FF85" fill-opacity="0.7"/>
<path d="M21.7468 23.0687C17.8532 25.6603 15.8734 26.9953 15.8656 27.0347C15.8565 27.0801 15.8668 27.0916 15.9122 27.0849C15.9413 27.0813 16.0461 27.077 16.1406 27.0769C16.3284 27.0829 16.6906 27.067 17.0456 27.0401C17.1704 27.0303 17.3721 27.0139 17.4932 27.0065C17.8258 26.9815 19.0379 26.8579 19.5346 26.7994C20.3675 26.6978 20.5692 26.6971 20.923 26.7866C21.2889 26.8785 21.4803 26.9766 21.8475 27.2673C22.2365 27.575 22.6165 28.1329 23.2366 29.3186C23.3233 29.484 23.4063 29.6361 23.4209 29.6579C23.4324 29.6791 23.4669 29.7427 23.4966 29.7991C23.6482 30.0972 23.8785 30.537 23.8997 30.5728C23.9112 30.594 23.9476 30.6643 23.9791 30.7273C24.01 30.7933 24.0876 30.9412 24.1489 31.0605C24.2131 31.1805 24.2852 31.3241 24.3119 31.3798C24.3386 31.4356 24.3816 31.5198 24.4065 31.5689C24.6714 32.0881 24.7805 32.2989 24.815 32.3626C24.838 32.405 24.8647 32.4607 24.875 32.488C24.8853 32.5152 24.9302 32.6061 24.9732 32.6903C25.1539 33.032 25.2672 33.2532 25.4187 33.567C25.5085 33.7488 25.6079 33.9451 25.6406 34.0021C25.6733 34.059 25.697 34.1142 25.6952 34.1232C25.6933 34.1323 25.7194 34.1911 25.7582 34.2493C25.7933 34.3099 25.8703 34.4607 25.9309 34.5831C25.994 34.7091 26.0498 34.8242 26.0613 34.8454C26.0734 34.8636 26.2286 35.175 26.4116 35.5362C26.5911 35.8997 26.7583 36.1978 26.7826 36.2026C26.8371 36.2135 31.8323 32.8838 31.8432 32.8292C31.845 32.8044 31.7438 32.6644 31.6153 32.519C31.356 32.2246 30.8597 31.6498 30.807 31.5825C30.7894 31.5601 30.6942 31.4529 30.5991 31.3457C30.0755 30.7496 29.3671 29.9276 28.7175 29.1582C28.5648 28.9765 28.3218 28.6948 28.1812 28.5313C28.0406 28.3677 27.8982 28.1975 27.863 28.1527C27.8279 28.1078 27.6673 27.9182 27.5061 27.7316C27.3449 27.5451 27.2074 27.3821 27.2001 27.3712C27.1928 27.3603 27.1019 27.2476 26.9971 27.1259C26.8928 27.0011 26.7971 26.8811 26.7825 26.8593C26.771 26.8381 26.6492 26.6909 26.5171 26.5322C25.8984 25.7974 25.6129 25.3497 25.4704 24.8958C25.3467 24.5056 25.3254 24.2808 25.3835 23.8953C25.43 23.5832 25.4433 23.5323 25.568 23.3019C25.7139 23.0285 26.0566 22.4005 26.3175 21.9295C26.55 21.5063 26.8933 20.8595 26.9744 20.6898C27.0155 20.6098 27.1178 20.397 27.208 20.2133C27.2982 20.0296 27.426 19.7526 27.4925 19.5926C27.5585 19.4356 27.6281 19.2762 27.6451 19.2386C27.6584 19.2034 27.6584 19.1719 27.6432 19.1689C27.6311 19.1665 24.9754 20.9211 21.7468 23.0687Z" fill="#00FF85" fill-opacity="0.7"/>
</svg>
