<svg width="22" height="22" viewBox="0 0 22 22" fill="none" xmlns="http://www.w3.org/2000/svg">
<g clip-path="url(#clip0_271_331)">
<path d="M10.9837 9.15325C12.753 9.15325 14.1873 7.71897 14.1873 5.94967C14.1873 4.18039 12.753 2.74609 10.9837 2.74609C9.21441 2.74609 7.78012 4.18039 7.78012 5.94967C7.78012 7.71897 9.21441 9.15325 10.9837 9.15325Z" stroke="#00FF85" stroke-width="2.10196" stroke-linecap="round" stroke-linejoin="round"/>
<path d="M5.49185 3.32007C4.6619 3.89898 4.11889 4.86077 4.11889 5.94944C4.11889 7.11476 4.74112 8.13478 5.67144 8.69537" stroke="#00FF85" stroke-width="2.10196" stroke-linecap="round" stroke-linejoin="round"/>
<path d="M16.4756 3.32007C17.3055 3.89898 17.8485 4.86077 17.8485 5.94944C17.8485 7.03806 17.3055 7.99991 16.4756 8.5788" stroke="#00FF85" stroke-width="2.10196" stroke-linecap="round" stroke-linejoin="round"/>
<path d="M5.49185 18.3063V19.2216H16.4756V18.3063C16.4756 16.6004 16.4756 15.7474 16.1968 15.0746C15.8253 14.1775 15.1125 13.4647 14.2154 13.0932C13.5426 12.8145 12.6896 12.8145 10.9837 12.8145C9.2778 12.8145 8.42482 12.8145 7.75198 13.0932C6.85488 13.4647 6.14213 14.1775 5.77056 15.0746C5.49185 15.7474 5.49185 16.6004 5.49185 18.3063Z" stroke="#00FF85" stroke-width="2.10196" stroke-linecap="round" stroke-linejoin="round"/>
<path d="M20.1367 19.2215V18.6723C20.1367 16.6218 20.1367 15.5966 19.7377 14.8134C19.3867 14.1245 18.8266 13.5644 18.1377 13.2134" stroke="#00FF85" stroke-width="2.10196" stroke-linecap="round" stroke-linejoin="round"/>
<path d="M1.83066 19.2215V18.6723C1.83066 16.6218 1.83066 15.5966 2.22971 14.8134C2.58072 14.1245 3.14082 13.5644 3.82972 13.2134" stroke="#00FF85" stroke-width="2.10196" stroke-linecap="round" stroke-linejoin="round"/>
</g>
<defs>
<clipPath id="clip0_271_331">
<rect width="21.9674" height="21.9674" fill="white"/>
</clipPath>
</defs>
</svg>
