<svg width="19" height="19" viewBox="0 0 19 19" fill="none" xmlns="http://www.w3.org/2000/svg">
<path d="M9.5 17.4166C12.7596 17.4166 15.4374 14.8335 15.4374 11.5179C15.4374 10.704 15.3961 9.83143 14.9449 8.47534C14.4937 7.1193 14.4028 6.94426 13.9258 6.1068C13.722 7.81581 12.6314 8.52807 12.3544 8.74095C12.3544 8.51948 11.6947 6.07038 10.6945 4.605C9.71256 3.16659 8.37718 2.22289 7.59418 1.58325C7.59418 2.79837 7.25242 4.605 6.76297 5.52551C6.27352 6.44602 6.18161 6.47955 5.57025 7.16458C4.95892 7.84961 4.67831 8.06118 4.1671 8.89235C3.6559 9.72356 3.5625 10.8306 3.5625 11.6446C3.5625 14.9601 6.24043 17.4166 9.5 17.4166Z" stroke="#C084FC" stroke-width="2" stroke-linejoin="round"/>
</svg>
