<svg width="27" height="27" viewBox="0 0 27 27" fill="none" xmlns="http://www.w3.org/2000/svg">
<path d="M23.3986 7.83861L22.8568 6.89838C22.4471 6.18731 22.2422 5.83177 21.8936 5.68999C21.545 5.54822 21.1508 5.66009 20.3623 5.88383L19.023 6.26109C18.5196 6.37717 17.9915 6.31132 17.5319 6.07516L17.1621 5.86182C16.7679 5.60937 16.4648 5.23717 16.2969 4.79967L15.9305 3.70492C15.6894 2.98046 15.5689 2.61823 15.282 2.41105C14.9952 2.20386 14.6141 2.20386 13.8519 2.20386H12.6282C11.8662 2.20386 11.4851 2.20386 11.1981 2.41105C10.9113 2.61823 10.7908 2.98046 10.5498 3.70492L10.1832 4.79967C10.0154 5.23717 9.71223 5.60937 9.3181 5.86182L8.94833 6.07516C8.4887 6.31132 7.96058 6.37717 7.45719 6.26109L6.11784 5.88383C5.32937 5.66009 4.93515 5.54822 4.58656 5.68999C4.23798 5.83177 4.03312 6.18731 3.62337 6.89838L3.08161 7.83861C2.69754 8.50514 2.5055 8.83841 2.54277 9.19319C2.58004 9.54796 2.83712 9.83386 3.35128 10.4057L4.48298 11.6709C4.75958 12.021 4.95596 12.6313 4.95596 13.18C4.95596 13.7289 4.75965 14.339 4.48301 14.6892L3.35128 15.9545C2.83712 16.5263 2.58005 16.8122 2.54277 17.167C2.5055 17.5218 2.69754 17.855 3.08161 18.5215L3.62336 19.4617C4.0331 20.1728 4.23798 20.5284 4.58656 20.6701C4.93515 20.8119 5.32938 20.7001 6.11786 20.4762L7.45715 20.099C7.96062 19.9829 8.48884 20.0488 8.94853 20.285L9.31824 20.4984C9.7123 20.7509 10.0154 21.123 10.1832 21.5605L10.5498 22.6554C10.7908 23.3798 10.9113 23.742 11.1981 23.9492C11.4851 24.1564 11.8662 24.1564 12.6282 24.1564H13.8519C14.6141 24.1564 14.9952 24.1564 15.282 23.9492C15.5689 23.742 15.6894 23.3798 15.9305 22.6554L16.2971 21.5605C16.4648 21.123 16.7678 20.7509 17.162 20.4984L17.5317 20.285C17.9914 20.0488 18.5195 19.9829 19.023 20.099L20.3623 20.4762C21.1508 20.7001 21.545 20.8119 21.8936 20.6701C22.2422 20.5284 22.4471 20.1728 22.8568 19.4617L23.3986 18.5215C23.7826 17.855 23.9746 17.5218 23.9374 17.167C23.9001 16.8122 23.643 16.5263 23.1289 15.9545L21.9971 14.6892C21.7205 14.339 21.5242 13.7289 21.5242 13.18C21.5242 12.6313 21.7206 12.021 21.9971 11.6709L23.1289 10.4057C23.643 9.83386 23.9001 9.54796 23.9374 9.19319C23.9746 8.83841 23.7826 8.50514 23.3986 7.83861Z" stroke="#E0E0E0" stroke-opacity="0.63" stroke-width="1.89759" stroke-linecap="round"/>
<path d="M17.0345 13.1715C17.0345 15.2932 15.3146 17.0132 13.1929 17.0132C11.0711 17.0132 9.3512 15.2932 9.3512 13.1715C9.3512 11.0498 11.0711 9.32983 13.1929 9.32983C15.3146 9.32983 17.0345 11.0498 17.0345 13.1715Z" stroke="#E0E0E0" stroke-opacity="0.63" stroke-width="1.89759"/>
</svg>
